<?xml version="1.0" standalone="no"?>
<!DOCTYPE svg PUBLIC "-//W3C//DTD SVG 20010904//EN"
 "http://www.w3.org/TR/2001/REC-SVG-20010904/DTD/svg10.dtd">
<svg version="1.0" xmlns="http://www.w3.org/2000/svg"
 width="512.000000pt" height="512.000000pt" viewBox="0 0 512.000000 512.000000"
 preserveAspectRatio="xMidYMid meet">
<metadata>
Created by potrace 1.14, written by Peter Selinger 2001-2017
</metadata>
<g transform="translate(0.000000,512.000000) scale(0.100000,-0.100000)"
fill="#000000" stroke="none">
<path d="M3513 5058 c-65 -10 -144 -41 -197 -78 -58 -40 -2169 -2157 -2194
-2200 -79 -135 -84 -328 -10 -458 41 -71 92 -125 157 -166 89 -56 130 -69 236
-73 146 -4 238 33 352 143 42 40 80 71 85 68 5 -3 7 -2 6 3 -4 12 28 54 35 46
4 -3 7 -1 7 6 0 18 60 72 71 65 5 -3 8 -2 7 3 -4 12 28 54 35 46 4 -3 7 -2 7
3 0 14 108 123 115 116 3 -3 5 0 5 6 0 16 45 62 60 62 7 0 10 3 7 7 -7 7 34
39 45 36 4 -2 5 4 2 12 -4 9 2 18 17 24 13 5 20 10 14 10 -5 1 2 9 15 18 14
10 29 17 33 15 5 -1 6 2 3 7 -4 5 338 354 758 775 450 450 776 784 791 810
131 224 53 512 -176 643 -75 43 -194 64 -286 51z"/>
<path d="M3485 2982 c-55 -9 -165 -46 -165 -55 0 -5 -8 -6 -17 -3 -10 4 -14 4
-11 0 4 -4 -11 -20 -32 -35 -22 -16 -40 -34 -40 -40 0 -6 -7 -8 -16 -5 -8 3
-13 2 -10 -2 7 -12 -79 -94 -89 -85 -4 5 -5 3 -1 -4 7 -13 -71 -90 -86 -85 -5
1 -7 -2 -4 -6 7 -12 -224 -243 -236 -236 -4 3 -7 1 -6 -4 5 -15 -72 -93 -84
-86 -6 4 -8 3 -5 -3 8 -13 -57 -76 -68 -66 -4 5 -5 3 -2 -3 9 -15 -71 -96 -86
-88 -7 4 -9 3 -4 -1 10 -11 -73 -96 -86 -88 -6 3 -7 1 -4 -4 4 -6 -48 -65
-114 -132 -127 -127 -180 -202 -205 -287 -53 -182 15 -381 171 -500 51 -39
146 -82 168 -76 4 1 7 -2 7 -6 0 -4 27 -8 60 -7 34 0 60 -4 60 -10 0 -5 4 -5
8 2 4 6 22 10 40 9 17 -1 32 1 32 6 0 4 8 8 18 8 9 0 41 11 70 25 28 13 52 22
52 20 0 -2 30 24 66 58 37 34 72 60 78 59 6 -2 7 0 3 4 -4 4 207 223 470 486
262 262 494 503 515 534 164 243 43 588 -240 683 -58 20 -162 31 -207 23z"/>
<path d="M2629 2883 c-13 -16 -12 -17 4 -4 16 13 21 21 13 21 -2 0 -10 -8 -17
-17z"/>
<path d="M2553 2865 c0 -8 4 -12 9 -9 5 3 6 10 3 15 -9 13 -12 11 -12 -6z"/>
<path d="M2560 2640 c-9 -6 -10 -10 -3 -10 6 0 15 5 18 10 8 12 4 12 -15 0z"/>
<path d="M2477 2573 c-10 -9 -9 -23 1 -23 5 0 9 7 9 15 0 17 -1 18 -10 8z"/>
<path d="M2550 2560 c0 -5 5 -10 11 -10 5 0 7 5 4 10 -3 6 -8 10 -11 10 -2 0
-4 -4 -4 -10z"/>
<path d="M2555 2480 c3 -5 8 -10 11 -10 2 0 4 5 4 10 0 6 -5 10 -11 10 -5 0
-7 -4 -4 -10z"/>
<path d="M2406 2398 c3 -5 10 -6 15 -3 13 9 11 12 -6 12 -8 0 -12 -4 -9 -9z"/>
<path d="M2475 2400 c3 -5 8 -10 11 -10 2 0 4 5 4 10 0 6 -5 10 -11 10 -5 0
-7 -4 -4 -10z"/>
<path d="M2646 2398 c3 -5 10 -6 15 -3 13 9 11 12 -6 12 -8 0 -12 -4 -9 -9z"/>
<path d="M2390 2336 c0 -2 8 -10 18 -17 15 -13 16 -12 3 4 -13 16 -21 21 -21
13z"/>
<path d="M2545 2320 c-3 -6 1 -7 9 -4 18 7 21 14 7 14 -6 0 -13 -4 -16 -10z"/>
<path d="M2555 2251 c-3 -5 -2 -12 3 -15 5 -3 9 1 9 9 0 17 -3 19 -12 6z"/>
<path d="M1995 2241 c-3 -5 -2 -12 3 -15 5 -3 9 1 9 9 0 17 -3 19 -12 6z"/>
<path d="M1875 2200 c3 -5 8 -10 11 -10 2 0 4 5 4 10 0 6 -5 10 -11 10 -5 0
-7 -4 -4 -10z"/>
<path d="M1875 2120 c3 -5 8 -10 11 -10 2 0 4 5 4 10 0 6 -5 10 -11 10 -5 0
-7 -4 -4 -10z"/>
<path d="M3233 1475 c0 -8 4 -12 9 -9 5 3 6 10 3 15 -9 13 -12 11 -12 -6z"/>
<path d="M3035 1341 c-3 -5 -2 -12 3 -15 5 -3 9 1 9 9 0 17 -3 19 -12 6z"/>
<path d="M3476 1207 c3 -10 9 -15 12 -12 3 3 0 11 -7 18 -10 9 -11 8 -5 -6z"/>
<path d="M3430 1201 c0 -6 4 -13 10 -16 6 -3 7 1 4 9 -7 18 -14 21 -14 7z"/>
<path d="M3546 1162 c-3 -5 1 -9 9 -9 8 0 12 4 9 9 -3 4 -7 8 -9 8 -2 0 -6 -4
-9 -8z"/>
<path d="M3270 1119 c0 -5 5 -7 10 -4 6 3 10 8 10 11 0 2 -4 4 -10 4 -5 0 -10
-5 -10 -11z"/>
<path d="M3336 1118 c3 -5 10 -6 15 -3 13 9 11 12 -6 12 -8 0 -12 -4 -9 -9z"/>
<path d="M2627 1039 c7 -7 15 -10 18 -7 3 3 -2 9 -12 12 -14 6 -15 5 -6 -5z"/>
<path d="M3296 958 c3 -5 10 -6 15 -3 13 9 11 12 -6 12 -8 0 -12 -4 -9 -9z"/>
<path d="M3527 957 c4 -6 -4 -8 -21 -5 -14 3 -26 1 -26 -3 0 -5 -7 -9 -15 -9
-28 0 -136 -61 -179 -100 -24 -22 -47 -36 -51 -32 -5 4 -5 2 -2 -4 8 -15 -22
-56 -35 -48 -6 4 -8 2 -4 -4 6 -11 -23 -82 -34 -82 -3 0 -6 -8 -7 -17 0 -10
-4 -34 -8 -53 -26 -141 3 -285 75 -371 113 -134 226 -191 380 -191 128 0 236
47 330 143 136 139 164 355 69 540 -24 47 -131 157 -174 179 -17 8 -33 19 -37
25 -4 5 -8 6 -8 2 0 -4 -10 -2 -22 4 -13 7 -36 14 -53 16 -16 1 -41 6 -55 9
-43 12 -50 12 -50 4 0 -4 -18 -4 -40 0 -26 5 -37 4 -33 -3z"/>
<path d="M2635 880 c3 -5 8 -10 11 -10 2 0 4 5 4 10 0 6 -5 10 -11 10 -5 0 -7
-4 -4 -10z"/>
<path d="M2715 880 c3 -5 8 -10 11 -10 2 0 4 5 4 10 0 6 -5 10 -11 10 -5 0 -7
-4 -4 -10z"/>
<path d="M2790 880 c0 -5 5 -10 11 -10 5 0 7 5 4 10 -3 6 -8 10 -11 10 -2 0
-4 -4 -4 -10z"/>
<path d="M2870 880 c0 -5 5 -10 10 -10 6 0 10 5 10 10 0 6 -4 10 -10 10 -5 0
-10 -4 -10 -10z"/>
<path d="M3030 879 c0 -5 5 -7 10 -4 6 3 10 8 10 11 0 2 -4 4 -10 4 -5 0 -10
-5 -10 -11z"/>
<path d="M2715 821 c-3 -5 -2 -12 3 -15 5 -3 9 1 9 9 0 17 -3 19 -12 6z"/>
<path d="M3033 815 c0 -8 4 -12 9 -9 5 3 6 10 3 15 -9 13 -12 11 -12 -6z"/>
<path d="M2870 802 c0 -5 7 -9 15 -9 8 0 12 4 9 9 -3 4 -9 8 -15 8 -5 0 -9 -4
-9 -8z"/>
<path d="M2866 722 c-2 -4 4 -8 14 -8 10 0 16 4 14 8 -3 4 -9 8 -14 8 -5 0
-11 -4 -14 -8z"/>
<path d="M3119 353 c-13 -16 -12 -17 4 -4 16 13 21 21 13 21 -2 0 -10 -8 -17
-17z"/>
</g>
</svg>
